HIERARCHY
ROOT pelvis
{
  OFFSET 0 100 0
  CHANNELS 6 Xposition Yposition Zposition Zrotation Xrotation Yrotation
  JOINT pelvis_right_femur
  {
    OFFSET -10.78128 -3.44521 -0.5502486
    CHANNELS 3 Zrotation Xrotation Yrotation
    JOINT right_femur_tibia
    {
      OFFSET -0.8047443 -44.0398 -0.1307829
      CHANNELS 3 Zrotation Xrotation Yrotation
      JOINT right_tibia_foot
      {
        OFFSET 3.006224 -47.83518 -5
        CHANNELS 3 Zrotation Xrotation Yrotation
        End Site
        {
          OFFSET 0 -5 15
        }
      }
    }
  }
  JOINT pelvis_left_femur
  {
    OFFSET 10.78128 -3.44521 -0.5502486
    CHANNELS 3 Zrotation Xrotation Yrotation
    JOINT left_femur_tibia
    {
      OFFSET 0.8047443 -44.0398 -0.1307829
      CHANNELS 3 Zrotation Xrotation Yrotation
      JOINT left_tibia_foot
      {
        OFFSET -4.370144 -48.10324 -4.275266
        CHANNELS 3 Zrotation Xrotation Yrotation
        End Site
        {
          OFFSET 0 -5 15
        }
      }
    }
  }
  JOINT pelvis_spine1
  {
    OFFSET 0 6.468898 -3.129235
    CHANNELS 3 Zrotation Xrotation Yrotation
    JOINT spine1
    {
      OFFSET 0 23.15396 4.99043
      CHANNELS 3 Zrotation Xrotation Yrotation
      JOINT spine2
      {
        OFFSET 0 20.79997 -5.064912
        CHANNELS 3 Zrotation Xrotation Yrotation
        JOINT neck
        {
          OFFSET 0 14.38658 9.616178
          CHANNELS 3 Zrotation Xrotation Yrotation
          End Site
          {
            OFFSET 0 20 0
          }
        }
      }
      JOINT right_manubrium
      {
        OFFSET -5.722621 16.35077 3.967754
        CHANNELS 3 Zrotation Xrotation Yrotation
        JOINT right_clavicle
        {
          OFFSET -13.16364 1.694482 -4.693211
          CHANNELS 3 Zrotation Xrotation Yrotation
          JOINT right_humerus
          {
            OFFSET -28.5034 -0.3100689 -2.792744
            CHANNELS 3 Zrotation Xrotation Yrotation
            JOINT right_radius
            {
              OFFSET -25.15693 0.02248979 -1.271978
              CHANNELS 3 Zrotation Xrotation Yrotation
              End Site
              {
                OFFSET -15 0 0
              }
            }
          }
        }
      }
      JOINT left_manubrium
      {
        OFFSET 5.722621 16.35077 3.967754
        CHANNELS 3 Zrotation Xrotation Yrotation
        JOINT left_clavicle
        {
          OFFSET 13.16364 1.694482 -4.693211
          CHANNELS 3 Zrotation Xrotation Yrotation
          JOINT left_humerus
          {
            OFFSET 29.39168 -1.063119 -2.237045
            CHANNELS 3 Zrotation Xrotation Yrotation
            JOINT left_radius
            {
              OFFSET 24.59957 -0.9528479 0.9047498
              CHANNELS 3 Zrotation Xrotation Yrotation
              End Site
              {
                OFFSET 15 -0 -0
              }
            }
          }
        }
      }
    }
  }
}
MOTION
Frames: 9
Frame Time: 0.0416666666667
0 103.5113 0 0.8023443 -0.9661336 0.05015149 3.45926 -16.30904 8.678991 -0 38.67487 -0 -6.478902 -15.76617 -2.7393 -7.336381 6.302978 -23.45672 -0 4.4987 -0 8.007117 -17.98651 26.68704 -1.956752 -1.985549 4.200641 2.162353 9.916327 -6.686627 0.8566031 22.38332 6.907511 4.490578 -23.96904 7.722258 5.867569 -18.51741 11.78719 85.08542 37.23343 -17.11395 -0 0 12.79786 -9.974098 8.183997 6.474354 6.304678 -21.40488 -2.697276 -93.22418 23.05202 21.74844 0 0 -15.03918 12.27672 17.29471 -0.3063825
0.3782332 103.6247 0.7918906 0.7704528 -0.8772291 0.1108899 3.661729 -18.23996 8.735268 -0 38.89849 -0 -6.553517 -15.24038 -2.990414 -7.335795 8.191769 -23.6764 -0 5.297581 -0 8.010509 -18.41776 26.48901 -1.889792 -2.204165 4.000617 2.379291 10.0471 -7.02104 0.7758861 22.29984 6.975074 4.596418 -24.4848 7.761165 5.943641 -18.50951 11.84898 85.8751 37.54178 -18.32866 -0 0 12.1693 -9.090898 7.926445 5.995934 6.444388 -21.98914 -2.786159 -93.12124 23.0334 21.55371 0 0 -15.9628 13.20065 17.70383 -1.216845
0.6967002 103.6977 2.11651 0.7347706 -1.101412 0.3004945 3.544945 -20.64638 7.812782 -0 38.08792 -0 -6.264581 -12.84591 -3.366769 -7.089595 10.71898 -22.55012 -0 5.881174 -0 7.031285 -19.0986 25.06967 -1.903841 -2.066532 3.944941 2.385487 9.88186 -7.101752 0.8341522 22.28718 6.981079 4.452538 -24.31511 7.858333 5.883275 -18.22273 11.75485 86.11198 37.37724 -18.71483 -0 0 11.96524 -9.334886 8.224247 6.003139 6.361396 -21.85154 -2.759849 -92.69562 23.69539 20.93021 0 0 -16.72199 12.08031 17.37549 0.126307
0.9684651 103.6604 3.732672 0.6507543 -1.036573 0.5209549 3.614797 -22.31621 7.153155 -0 35.84376 -0 -6.330596 -11.88237 -3.481191 -6.835989 12.06845 -21.82644 -0 5.74897 -0 6.577743 -19.54097 24.19179 -1.889612 -2.067665 3.874066 2.446245 9.84626 -7.22536 0.8372216 22.25522 7.00083 4.416601 -24.38703 7.911251 5.877471 -18.10995 11.73278 86.41976 37.38487 -19.19866 -0 0 11.7303 -9.200097 8.287309 5.880546 6.356929 -21.94302 -2.770299 -92.5007 23.98767 20.64143 0 0 -17.29249 11.82095 17.34118 0.4946688
1.181834 103.3958 5.772719 0.5057869 -0.8947412 0.7656686 3.708484 -24.29105 6.124476 -0 31.73347 -0 -6.512014 -10.816 -3.531749 -6.426612 13.43169 -20.66941 -0 5.240012 -0 5.944647 -20.05302 22.93406 -1.880576 -2.03764 3.771569 2.51445 9.7721 -7.380565 0.8534631 22.22466 7.025296 4.351374 -24.41913 7.988503 5.858109 -17.90275 11.68578 86.82679 37.35322 -19.83171 -0 0 11.3878 -9.107585 8.410386 5.741559 6.34611 -22.02821 -2.781187 -92.15844 24.41953 20.12322 0 0 -18.0905 11.35261 17.22859 1.113477
1.342201 102.908 8.249373 0.3651608 -0.7938254 1.03521 3.755498 -26.09423 5.088732 -0 27.70575 -0 -6.669621 -9.728682 -3.581186 -6.044853 14.67693 -19.47116 -0 4.912245 -0 5.248578 -20.48396 21.6501 -1.872919 -2.022319 3.657988 2.585891 9.715871 -7.535828 0.8632688 22.20143 7.051881 4.306772 -24.46481 8.055484 5.845715 -17.6999 11.6459 87.24353 37.33748 -20.46799 -0 0 11.01249 -8.980769 8.490561 5.587807 6.357603 -22.15035 -2.801032 -91.81847 24.75699 19.59344 0 0 -18.84067 11.06033 17.15639 1.517168
1.451757 102.1963 11.26039 0.2243255 -0.7852023 1.338328 3.722035 -27.85921 3.900365 -0 23.55306 -0 -6.761575 -8.333305 -3.665801 -5.663597 15.96592 -18.02314 -0 4.937743 -0 4.318495 -20.84293 20.12957 -1.870166 -1.998166 3.519575 2.661641 9.6502 -7.705398 0.8764659 22.18592 7.082108 4.260541 -24.49223 8.12784 5.830327 -17.44599 11.59665 87.7156 37.308 -21.17817 -0 0 10.55604 -8.861361 8.574052 5.418492 6.381728 -22.2916 -2.827193 -91.39606 25.09778 18.92326 0 0 -19.6728 10.77787 17.06772 1.903304
1.517605 101.2921 14.87911 0.09727008 -0.901664 1.680054 3.611669 -29.41614 2.645124 -0 19.64229 -0 -6.76493 -6.679987 -3.799531 -5.319797 17.20475 -16.393 -0 5.558875 -0 3.172479 -21.04889 18.44938 -1.876306 -1.962313 3.364748 2.73059 9.579455 -7.868099 0.8934397 22.18622 7.112875 4.218791 -24.48208 8.196649 5.812266 -17.15089 11.53996 88.19374 37.26117 -21.88316 -0 0 10.04652 -8.779244 8.650603 5.254945 6.421837 -22.43723 -2.858775 -90.91158 25.3862 18.1378 0 0 -20.49423 10.55386 16.96629 2.200489
1.549115 100.2509 19.18804 -0.0086681 -1.18894 2.060546 3.443562 -30.62405 1.354503 -0 16.10196 -0 -6.659383 -4.749881 -4.003469 -5.021087 18.3113 -14.54785 -0 7.1287 -0 1.766569 -21.00217 16.60234 -1.893462 -1.906332 3.197258 2.786889 9.497543 -8.016317 0.9173878 22.20484 7.142484 4.17636 -24.41673 8.262381 5.788511 -16.80868 11.47258 88.66014 37.18651 -22.55652 -0 0 9.495101 -8.763066 8.732228 5.110239 6.473469 -22.56997 -2.893303 -90.35899 25.62927 17.22742 0 0 -21.2932 10.34838 16.83457 2.451034
